<svg width="15" height="15" viewBox="0 0 15 15" fill="none" xmlns="http://www.w3.org/2000/svg">
  <path d="M7.5 0C3.35617 0 0 3.40721 0 7.61405C0 11.1923 2.41851 14.1621 5.68149 14.9993C5.64383 14.9041 5.62532 14.7706 5.62532 14.6378V13.3431H4.68766C4.18149 13.3431 3.71234 13.115 3.50617 12.6957C3.26234 12.2389 3.22468 11.5345 2.60617 11.0964C2.41851 10.9441 2.56851 10.7919 2.77468 10.8107C3.16851 10.9247 3.48702 11.1917 3.78702 11.5908C4.08702 11.9907 4.21851 12.0859 4.78085 12.0859C5.04319 12.0859 5.45553 12.0671 5.83085 12.0095C6.03702 11.4762 6.39319 11.0005 6.82468 10.7724C4.31234 10.4679 3.11234 9.21138 3.11234 7.49805C3.11234 6.75544 3.43085 6.05106 3.95617 5.44194C3.78766 4.85161 3.56234 3.63336 4.03149 3.15772C5.15681 3.15772 5.83149 3.90034 6 4.0902C6.56234 3.89969 7.18149 3.78564 7.81851 3.78564C8.47468 3.78564 9.07468 3.89969 9.63702 4.0902C9.80553 3.89969 10.4809 3.15772 11.6055 3.15772C12.0555 3.61457 11.8494 4.85161 11.6617 5.44194C12.187 6.03227 12.487 6.75544 12.487 7.49805C12.487 9.21138 11.3055 10.4679 8.81234 10.7342C9.50617 11.0958 9.99383 12.1235 9.99383 12.8849V14.619C9.99383 14.676 9.97532 14.733 9.97532 14.79C12.9 13.7623 15 10.9454 15 7.61405C15 3.40721 11.6438 0 7.5 0Z" fill="black"/>
</svg>
